<svg id="Calque_1" data-name="Calque 1" xmlns="http://www.w3.org/2000/svg" viewBox="0 0 144 144"><defs><style>.cls-1{fill:none;}.cls-2{fill:#70706f;}.cls-3{fill:#72c7db;}</style></defs><title>Plan de travail 1</title><polygon class="cls-1" points="73.83 101.13 73.48 131 122.38 99.84 125.76 43.83 98.45 59.58 73.83 101.13"/><polygon class="cls-1" points="95.89 54.33 122.84 38.58 72.55 10.57 20.85 37.52 47.1 53.98 95.89 54.33"/><polygon class="cls-1" points="18.05 42.78 20.61 98.56 67.64 130.89 67.76 101.01 44.42 59.23 18.05 42.78"/><path class="cls-2" d="M131.86,37.41A5.2,5.2,0,0,0,130.2,36L74.76,5.08a4.66,4.66,0,0,0-2.16-.55,5.56,5.56,0,0,0-2.5.67L13.61,34.37A4.2,4.2,0,0,0,12,36.07a13.05,13.05,0,0,0-.16,3.44l2.68,58.82a8.12,8.12,0,0,0,.94,3.38,7.93,7.93,0,0,0,1.86,1.75l50.54,35.13a5.46,5.46,0,0,0,2.37.88c1,0,3.23-1.46,3.23-1.46l52.75-33.5s1.39-.84,1.64-1.46a11.14,11.14,0,0,0,.34-2.39l4-61.38A4.16,4.16,0,0,0,131.86,37.41ZM72.55,10.57l50.3,28-27,15.75L47.1,54,20.85,37.52ZM67.64,130.89l-47-32.33L18,42.78,44.42,59.23,67.76,101Zm3-36.53-19-34.31,39.44.23Zm51.7,5.48L73.48,131l.35-29.87L98.45,59.58l27.31-15.75Z"/><polygon class="cls-3" points="51.66 60.05 70.68 94.36 91.1 60.28 51.66 60.05"/></svg>